<?xml version='1.0' encoding='utf-8'?>
<svg xmlns="http://www.w3.org/2000/svg" version="1.1" x="0px" y="0px" width="709.46px" height="673.47px" viewBox="0 0 709.46 673.47" enable-background="new 0 0 709.46 673.47"> <g id="Warstwa_3"> <rect fill="#495866" width="709.46" height="673.47"/> <rect y="499.73" fill="#3D4C59" width="709.46" height="173.74"/> <polygon opacity="0.1" fill="#1D1D1B" points="510.26,673.47 508.28,206.14 198.83,208.12 92.55,673.47 "/> </g> <g id="Warstwa_5"> <g opacity="0.4"> <polygon fill="#94A3AF" points="12.19,0 0,23.64 0,24.87 12.81,0 "/> </g> <g opacity="0.4"> <polygon fill="#94A3AF" points="15.63,0 0,28.02 0,29.19 16.27,0 "/> </g> <g opacity="0.4"> <polygon fill="#94A3AF" points="23.53,0 0,42.16 0,43.35 24.16,0 "/> </g> <g opacity="0.4"> <polygon fill="#94A3AF" points="31.42,0 0,56.3 0,57.51 32.05,0 "/> </g> <g opacity="0.2"> <polygon fill="#94A3AF" points="39.31,0 0,70.44 0,71.67 39.94,0 "/> </g> <g opacity="0.4"> <polygon fill="#94A3AF" points="50.97,0 0,98.79 0,100.13 51.58,0 "/> </g> <g opacity="0.4"> <polygon fill="#94A3AF" points="55.09,0 0,98.73 0,99.99 55.71,0 "/> </g> <g opacity="0.2"> <polygon fill="#94A3AF" points="62.99,0 0,112.87 0,114.15 63.61,0 "/> </g> <g opacity="0.4"> <polygon fill="#94A3AF" points="74.23,0 0,143.88 0,145.28 74.83,0 "/> </g> <g opacity="0.4"> <polygon fill="#94A3AF" points="78.77,0 0,141.15 0,142.47 79.39,0 "/> </g> <g opacity="0.4"> <polygon fill="#94A3AF" points="86.66,0 0,155.3 0,156.63 87.27,0 "/> </g> <g opacity="0.2"> <polygon fill="#94A3AF" points="94.55,0 0,169.44 0,170.79 95.17,0 "/> </g> <g opacity="0.4"> <polygon fill="#94A3AF" points="102.44,0 0,183.58 0,184.95 103.06,0 "/> </g> <g opacity="0.2"> <polygon fill="#94A3AF" points="109.73,0 0,196.33 0,200.51 111.55,0 "/> </g> <g opacity="0.4"> <polygon fill="#94A3AF" points="118.23,0 0,211.87 0,213.27 118.84,0 "/> </g> <g opacity="0.2"> <polygon fill="#94A3AF" points="126.12,0 0,226.01 0,227.43 126.73,0 "/> </g> <g opacity="0.4"> <polygon fill="#94A3AF" points="136.27,0 0,264.13 0,265.69 136.86,0 "/> </g> <g opacity="0.4"> <polygon fill="#94A3AF" points="141.9,0 0,254.29 0,255.75 142.51,0 "/> </g> <g opacity="0.4"> <polygon fill="#94A3AF" points="149.8,0 0,268.44 0,269.92 150.4,0 "/> </g> <g opacity="0.2"> <polygon fill="#94A3AF" points="157.09,0 0,281.08 0,285.58 158.88,0 "/> </g> <g opacity="0.4"> <polygon fill="#94A3AF" points="186.68,0 0,334.03 0,338.74 188.46,0 "/> </g> <g opacity="0.4"> <polygon fill="#94A3AF" points="128.79,0 0,230.44 0,234.76 130.61,0 "/> </g> <g opacity="0.4"> <polygon fill="#94A3AF" points="165.58,0 0,296.72 0,298.24 166.18,0 "/> </g> <g opacity="0.4"> <polygon fill="#94A3AF" points="172.88,0 0,309.33 0,313.94 174.66,0 "/> </g> <g opacity="0.2"> <polygon fill="#94A3AF" points="181.36,0 0,325 0,326.56 181.96,0 "/> </g> <g opacity="0.4"> <polygon fill="#94A3AF" points="190.55,0 0,369.34 0,371.05 191.13,0 "/> </g> <g opacity="0.4"> <polygon fill="#94A3AF" points="197.15,0 0,353.29 0,354.88 197.74,0 "/> </g> <g opacity="0.2"> <polygon fill="#94A3AF" points="204.45,0 0,365.83 0,370.65 206.21,0 "/> </g> <g opacity="0.4"> <polygon fill="#94A3AF" points="212.93,0 0,381.57 0,383.2 213.52,0 "/> </g> <g opacity="0.4"> <polygon fill="#94A3AF" points="220.24,0 0,394.08 0,399 221.99,0 "/> </g> <g opacity="0.4"> <polygon fill="#94A3AF" points="244.16,0 0.11,436.68 0.11,441.77 245.89,0 "/> </g> <g opacity="0.4"> <polygon fill="#94A3AF" points="258.92,0 0,463.29 0,468.5 260.65,0 "/> </g> <g opacity="0.4"> <polygon fill="#94A3AF" points="301.18,0 0,538.91 0,544.41 302.88,0 "/> </g> <g opacity="0.4"> <polygon fill="#94A3AF" points="228.72,0 0,409.86 0,411.52 229.3,0 "/> </g> <g opacity="0.2"> <polygon fill="#94A3AF" points="236.61,0 0,424 0,425.68 237.19,0 "/> </g> <g opacity="0.2"> <polygon fill="#94A3AF" points="237.72,0 0,425.67 0,452.34 251.85,0 "/> <polygon fill="#94A3AF" points="244.21,0 0,437.3 0,440.69 245.36,0 "/> </g> <g opacity="0.2"> <polygon fill="#94A3AF" points="252.39,0 0,452.28 0,454 252.97,0 "/> </g> <g opacity="0.4"> <polygon fill="#94A3AF" points="260.34,0 0,504.62 0,506.51 260.91,0 "/> </g> <g opacity="0.2"> <polygon fill="#94A3AF" points="268.18,0 0,480.57 0,482.32 268.75,0 "/> </g> <g opacity="0.4"> <polygon fill="#94A3AF" points="275.78,0 0,493.83 0,497.36 276.92,0 "/> </g> <g opacity="0.2"> <polygon fill="#94A3AF" points="283.96,0 0,508.85 0,510.64 284.53,0 "/> </g> <g opacity="0.4"> <polygon fill="#94A3AF" points="291.85,0 0,523 0,524.8 292.42,0 "/> </g> <g opacity="0.4"> <polygon fill="#94A3AF" points="299.12,0 0,579.77 0,581.77 299.67,0 "/> </g> <g opacity="0.4"> <polygon fill="#94A3AF" points="307.35,0 0,550.36 0,554.04 308.48,0 "/> </g> <g opacity="0.4"> <polygon fill="#94A3AF" points="315.53,0 0,565.42 0,567.28 316.09,0 "/> </g> <g opacity="0.2"> <polygon fill="#94A3AF" points="193.24,232.6 193.24,232.61 20.84,541.31 7.8,564.66 0,578.63 0,582.37 192.19,237.2 192.19,237.19 194.47,233.1 195.64,228.3 "/> <polygon fill="#94A3AF" points="323.15,0 206.79,208.35 199.23,221.88 200.66,221.98 208.23,208.39 324.26,0 "/> </g> <g opacity="0.4"> <polygon fill="#94A3AF" points="187.78,256.52 0,592.77 0,596.55 186.7,261.22 188.28,258.38 189.48,253.47 "/> <polygon fill="#94A3AF" points="331.04,0 214.55,208.57 206.82,222.41 208.25,222.51 215.99,208.61 332.15,0 "/> </g> <g opacity="0.4"> <polygon fill="#94A3AF" points="173.56,318.52 169.19,326.99 133.84,395.51 111.54,438.72 70.55,518.18 38.15,580.98 12.01,631.65 0,654.93 0,657.02 26.13,606.29 51.23,557.55 83.45,495 123.58,417.11 144.99,375.54 169.87,327.25 172.84,321.49 173.03,321.11 173.67,318.31 "/> <polygon fill="#94A3AF" points="337.89,0 230.05,209.02 225.1,218.62 230.45,209.03 230.76,209.04 234.49,201.78 338.43,0 "/> </g> <g opacity="0.2"> <polygon fill="#94A3AF" points="0,621.99 0,623.93 176.01,308.03 176.58,305.57 "/> <polygon fill="#94A3AF" points="347.1,0 234.49,201.78 230.45,209.03 230.76,209.04 225.69,218.87 231.16,209.05 347.65,0 "/> </g> <g opacity="0.4"> <polygon fill="#94A3AF" points="144.99,375.54 133.84,395.51 0,635.17 0,639.06 111.54,438.72 123.58,417.11 170.24,333.29 171.39,328.26 "/> <polygon fill="#94A3AF" points="354.72,0 237.86,209.24 239.29,209.28 355.82,0 "/> </g> <g opacity="0.2"> <polygon fill="#94A3AF" points="164.86,354.08 51.23,557.55 38.15,580.98 0,649.3 0,653.22 12.01,631.65 26.13,606.29 163.53,359.51 164.76,357.3 165.93,352.16 "/> <polygon fill="#94A3AF" points="362.61,0 245.63,209.46 247.05,209.51 363.7,0 "/> </g> <g opacity="0.4"> <polygon fill="#94A3AF" points="158.7,379.25 0,663.42 0,667.39 157.34,384.78 159.27,381.32 160.48,376.06 "/> <polygon fill="#94A3AF" points="370.5,0 253.39,209.69 254.81,209.73 371.59,0 "/> </g> <g opacity="0.4"> <polygon fill="#94A3AF" points="30.83,673.47 137.33,466.56 137.33,466.55 141.79,457.89 142.81,453.4 143.23,451.57 138.98,459.81 135.57,466.42 28.66,673.47 "/> <polygon fill="#94A3AF" points="376.4,0 267.91,210.1 268.93,210.13 269.3,210.14 273.76,201.49 377.47,0 "/> </g> <g opacity="0.2"> <polygon fill="#94A3AF" points="12.4,673.47 144.96,435.36 148.3,429.37 149.55,423.9 146.38,429.58 10.18,673.47 "/> <polygon fill="#94A3AF" points="386.29,0 273.76,201.49 268.93,210.13 269.3,210.14 270.35,210.17 387.37,0 "/> </g> <g opacity="0.4"> <polygon fill="#94A3AF" points="20.29,673.47 47.69,624.25 47.7,624.23 135.57,466.42 138.77,460.67 138.77,460.66 142.81,453.4 143.23,451.57 144.09,447.8 140.23,454.71 140.23,454.72 73.94,573.41 73.91,573.46 18.07,673.47 "/> <polygon fill="#94A3AF" points="394.18,0 276.7,210.36 278.11,210.4 395.26,0 "/> </g> <g opacity="0.2"> <polygon fill="#94A3AF" points="62.29,673.47 91.12,616.14 100.72,597.07 109.81,578.99 117.73,563.23 118.54,559.7 110.74,575.17 90.44,615.47 80.55,635.12 61.23,673.47 "/> <polygon fill="#94A3AF" points="400.47,0 316.29,167.12 296.84,205.72 294.26,210.86 294.94,210.88 304.02,192.82 322.87,155.35 401,0 "/> </g> <g opacity="0.4"> <polygon fill="#94A3AF" points="36.61,673.47 44.59,659.12 126.02,512.76 131.51,502.89 133.5,494.18 128.28,503.52 82.72,585.03 33.3,673.47 "/> <polygon fill="#94A3AF" points="409.69,0 322.87,155.35 316.29,167.12 291.88,210.79 293.99,210.85 296.84,205.72 304.02,192.82 411.3,0 "/> </g> <g opacity="0.4"> <polygon fill="#94A3AF" points="43.4,673.47 120.59,534.95 126.7,523.98 127.37,521.02 121.36,531.78 42.3,673.47 "/> <polygon fill="#94A3AF" points="418.13,0 300.36,211.04 301.05,211.06 418.66,0 "/> </g> <g opacity="0.4"> <polygon fill="#94A3AF" points="76.81,673.47 99.39,629.62 105.1,618.54 112.04,605.07 105.5,616.78 105.92,614.97 98.58,629.19 85.41,654.71 75.74,673.47 "/> <polygon fill="#94A3AF" points="423.2,0 314.11,211.43 314.8,211.45 423.73,0 "/> </g> <g opacity="0.2"> <polygon fill="#94A3AF" points="59.18,673.47 80.55,635.12 91.12,616.14 108.23,585.44 115.74,571.97 116.44,568.89 109.03,582.17 100.72,597.07 90.44,615.47 58.08,673.47 "/> <polygon fill="#94A3AF" points="433.91,0 315.89,211.48 316.58,211.5 434.44,0 "/> </g> <g opacity="0.4"> <polygon fill="#94A3AF" points="438.54,0 333.37,208.43 331.61,211.93 326.66,221.74 332.12,211.95 333.64,211.99 347.81,183.79 353.92,171.62 440.1,0 "/> </g> <g opacity="0.2"> <polygon fill="#94A3AF" points="74.96,673.47 85.41,654.71 99.39,629.62 104.78,619.96 105.1,618.54 112.04,605.07 105.5,616.78 98.58,629.19 73.87,673.47 "/> <polygon fill="#94A3AF" points="449.69,0 353.92,171.62 333.37,208.43 331.42,211.93 331.61,211.93 326.66,221.74 332.12,211.95 347.81,183.79 450.22,0 "/> </g> <g opacity="0.4"> <polygon fill="#94A3AF" points="82.85,673.47 89.69,661.2 99.3,643.95 100.03,640.72 90.53,657.74 81.76,673.47 "/> <polygon fill="#94A3AF" points="457.59,0 339.19,212.15 339.88,212.17 458.11,0 "/> </g> <g opacity="0.4"> <polygon fill="#94A3AF" points="90.74,673.47 93.82,667.94 94.57,664.65 89.65,673.47 "/> <polygon fill="#94A3AF" points="465.48,0 346.96,212.38 347.65,212.4 466,0 "/> </g> <g opacity="0.2"> <polygon fill="#94A3AF" points="469.41,0 362.04,212.81 357.67,221.46 350.92,234.85 363.18,212.84 364.06,212.87 372.21,196.63 378.35,184.4 470.95,0 "/> </g> <g opacity="0.4"> <polygon fill="#94A3AF" points="481.26,0 378.35,184.4 362.49,212.82 357.67,221.46 350.92,234.85 363.18,212.84 372.21,196.63 481.78,0 "/> </g> <g opacity="0.4"> <polygon fill="#94A3AF" points="485.23,0 375.24,213.19 375.92,213.21 485.74,0 "/> </g> <g opacity="0.4"> <polygon fill="#94A3AF" points="496.53,0 377.34,213.25 379.39,213.31 498.07,0 "/> </g> <g opacity="0.4"> <polygon fill="#94A3AF" points="500.79,0 393.14,213.7 389.16,221.6 382.61,234.61 389.69,221.91 393.8,213.72 396.03,209.29 501.29,0 "/> </g> <g opacity="0.2"> <polygon fill="#94A3AF" points="512.83,0 396.03,209.29 393.56,213.72 389.16,221.6 382.61,234.61 389.69,221.91 394.24,213.73 513.34,0 "/> </g> <g opacity="0.4"> <polygon fill="#94A3AF" points="520.72,0 401.33,213.94 402.01,213.96 521.23,0 "/> </g> <g opacity="0.4"> <polygon fill="#94A3AF" points="523.5,0 412.78,214.27 414.78,214.32 525.01,0 "/> </g> <g opacity="0.4"> <polygon fill="#94A3AF" points="536.51,0 416.87,214.38 417.54,214.4 537.01,0 "/> </g> <g opacity="0.4"> <polygon fill="#94A3AF" points="544.4,0 430.92,203.33 424.63,214.61 425.3,214.63 431.59,203.34 544.9,0 "/> </g> <g opacity="0.2"> <polygon fill="#94A3AF" points="552.29,0 432.4,214.83 433.07,214.85 552.79,0 "/> </g> <g opacity="0.4"> <polygon fill="#94A3AF" points="558,0 448.37,203.59 442.17,215.11 444.16,215.17 450.35,203.62 559.49,0 "/> </g> <g opacity="0.2"> <polygon fill="#94A3AF" points="565.14,0 461.69,203.79 455.75,215.5 456.4,215.52 462.34,203.8 565.63,0 "/> </g> <g opacity="0.4"> <polygon fill="#94A3AF" points="573.65,0 463.9,203.82 457.59,215.55 459.57,215.61 465.87,203.85 575.13,0 "/> </g> <g opacity="0.4"> <polygon fill="#94A3AF" points="583.86,0 470.06,203.91 463.47,215.72 464.13,215.74 470.71,203.92 584.35,0 "/> </g> <g opacity="0.4"> <polygon fill="#94A3AF" points="588.33,0 478.6,216.16 479.24,216.18 588.81,0 "/> </g> <g opacity="0.4"> <polygon fill="#94A3AF" points="597.13,0 480.71,216.22 482.67,216.28 598.59,0 "/> </g> <g opacity="0.2"> <polygon fill="#94A3AF" points="607.53,0 493.54,204.26 486.77,216.39 487.43,216.41 494.19,204.27 608.02,0 "/> </g> <g opacity="0.4"> <polygon fill="#94A3AF" points="612.78,0 502.72,204.4 496.12,216.66 498.08,216.72 504.67,204.43 614.23,0 "/> </g> <g opacity="0.4"> <polygon fill="#94A3AF" points="623.32,0 509.05,204.76 502.31,216.84 502.96,216.86 509.05,205.92 509.05,205.91 623.8,0 "/> </g> <g opacity="0.2"> <polygon fill="#94A3AF" points="631.21,0 509.09,218.82 509.09,220.01 631.69,0 "/> </g> <g opacity="0.4"> <polygon fill="#94A3AF" points="638.62,0 509.12,231.69 509.13,235.32 640.06,0 "/> </g> <g opacity="0.4"> <polygon fill="#94A3AF" points="642.43,0 549.66,182.74 517.07,246.94 510.08,260.73 509.21,262.45 509.21,263.76 517.56,247.29 524.33,233.94 556.4,170.67 642.9,0 "/> </g> <g opacity="0.4"> <polygon fill="#94A3AF" points="654.88,0 524.33,233.94 517.07,246.94 509.2,261.03 509.21,262.29 510.08,260.73 517.56,247.29 655.36,0 "/> </g> <g opacity="0.2"> <polygon fill="#94A3AF" points="662.78,0 509.24,275.12 509.25,276.35 509.25,276.37 513.75,268.29 663.25,0 "/> </g> <g opacity="0.4"> <polygon fill="#94A3AF" points="670.19,0 509.28,287.91 509.29,291.75 671.61,0 "/> </g> <g opacity="0.4"> <polygon fill="#94A3AF" points="673.34,0 623.87,97.47 541.42,259.89 534.37,273.76 509.37,323 509.38,324.42 541.93,260.19 548.74,246.76 629.94,86.55 673.81,0 "/> </g> <g opacity="0.4"> <polygon fill="#94A3AF" points="686.45,0 548.74,246.76 541.42,259.89 509.36,317.34 509.36,318.65 534.37,273.76 541.93,260.19 686.92,0 "/> </g> <g opacity="0.2"> <polygon fill="#94A3AF" points="694.34,0 509.4,331.41 509.4,332.74 694.81,0 "/> </g> <g opacity="0.4"> <polygon fill="#94A3AF" points="701.77,0 509.43,344.13 509.44,346.92 509.44,348.2 666.07,66.67 703.16,0 "/> </g> <g opacity="0.4"> <polygon fill="#94A3AF" points="709.46,1.19 509.47,359.55 509.47,359.56 509.48,360.92 709.46,2.01 "/> </g> <g opacity="0.4"> <polygon fill="#94A3AF" points="709.46,4.98 610.78,199.38 578.68,262.61 557.44,304.45 523.7,370.93 509.58,398.74 509.58,400.25 532.15,355.74 565.27,290.39 585.79,249.89 617.34,187.65 709.46,5.87 "/> </g> <g opacity="0.4"> <polygon fill="#94A3AF" points="709.46,28.61 585.79,249.89 578.68,262.61 509.55,386.31 509.55,386.32 509.56,390.51 557.44,304.45 565.27,290.39 709.46,31.22 "/> </g> <g opacity="0.4"> <polygon fill="#94A3AF" points="709.46,43.61 509.59,401.78 509.59,403.2 709.46,44.49 "/> </g> <g opacity="0.4"> <polygon fill="#94A3AF" points="709.46,57.3 509.62,415.13 509.62,415.14 509.63,418 709.46,59.12 "/> </g> <g opacity="0.2"> <polygon fill="#94A3AF" points="709.46,70.98 509.66,428.47 509.67,432.84 709.46,73.74 "/> </g> <g opacity="0.4"> <polygon fill="#94A3AF" points="709.46,86.04 509.7,444 509.7,444.01 509.71,445.49 709.46,86.99 "/> </g> <g opacity="0.4"> <polygon fill="#94A3AF" points="709.46,96.32 608.32,295.56 601.37,309.26 601.16,309.67 537.05,435.96 511.64,486.03 509.83,489.6 509.83,491.23 521.05,469.1 545.62,420.63 608.83,295.9 608.86,295.85 615.78,282.2 709.46,97.35 "/> </g> <g opacity="0.2"> <polygon fill="#94A3AF" points="709.46,114.33 615.78,282.2 608.32,295.56 509.78,472.14 509.78,473.65 601.16,309.67 607.97,297.45 608.83,295.9 608.86,295.85 709.46,115.3 "/> </g> <g opacity="0.4"> <polygon fill="#94A3AF" points="709.46,127.48 545.62,420.63 537.05,435.96 509.81,484.68 509.81,484.69 509.83,489.28 511.64,486.03 521.05,469.1 709.46,130.46 "/> </g> <g opacity="0.4"> <polygon fill="#94A3AF" points="709.46,142.61 618.83,305.01 509.86,500.29 509.86,501.84 709.46,143.62 "/> </g> <g opacity="0.4"> <polygon fill="#94A3AF" points="709.46,157.23 632.67,308.51 625.49,322.65 553.25,464.96 544.72,481.76 515.52,539.28 509.99,550.16 509.99,550.17 510,551.9 524.88,522.54 553.85,465.37 562.1,449.11 633.2,308.81 640.14,295.12 709.46,158.34 "/> </g> <g opacity="0.2"> <polygon fill="#94A3AF" points="709.46,170.9 640.14,295.12 632.67,308.51 509.93,528.42 509.93,528.43 509.94,530.02 625.49,322.65 633.2,308.81 709.46,171.94 "/> </g> <g opacity="0.4"> <polygon fill="#94A3AF" points="709.46,185.04 562.1,449.11 553.25,464.96 509.97,542.5 509.98,544.12 544.72,481.76 553.85,465.37 709.46,186.1 "/> </g> <g opacity="0.4"> <polygon fill="#94A3AF" points="709.46,198.1 510.01,554.97 510.01,554.98 510.02,559.83 709.46,201.35 "/> </g> <g opacity="0.4"> <polygon fill="#94A3AF" points="709.46,213.33 510.05,570.67 510.05,572.29 709.46,214.42 "/> </g> <g opacity="0.2"> <polygon fill="#94A3AF" points="709.46,227.47 510.09,584.74 510.09,586.39 709.46,228.58 "/> </g> <g opacity="0.4"> <polygon fill="#94A3AF" points="709.46,248.58 669.21,327.87 661.97,342.13 655.02,355.82 589.7,484.51 581.18,501.28 519.88,622.05 514.78,632.1 510.24,641.03 510.25,642.89 525.17,613.45 529.84,604.23 590.37,484.8 598.6,468.56 662.82,341.85 669.73,328.21 676.73,314.41 709.46,249.83 "/> </g> <g opacity="0.4"> <polygon fill="#94A3AF" points="709.46,255.75 676.73,314.41 669.21,327.87 510.16,612.87 510.16,612.88 510.17,614.56 661.97,342.13 669.73,328.21 709.46,256.9 "/> </g> <g opacity="0.2"> <polygon fill="#94A3AF" points="709.46,269.9 598.6,468.56 589.7,484.51 510.2,626.95 510.2,626.96 510.21,628.66 581.18,501.28 590.37,484.8 709.46,271.07 "/> </g> <g opacity="0.4"> <polygon fill="#94A3AF" points="709.46,286.42 709.46,282.84 684.76,327.04 529.84,604.23 519.88,622.05 510.24,639.3 510.24,641.03 510.25,642.89 510.25,644.46 "/> </g> <g opacity="0.4"> <polygon fill="#94A3AF" points="709.46,298.18 510.28,655.1 510.28,656.82 709.46,299.38 "/> </g> <g opacity="0.4"> <polygon fill="#94A3AF" points="533.38,673.47 709.46,326.04 709.46,324.7 532.42,673.47 "/> </g> <g opacity="0.4"> <polygon fill="#94A3AF" points="516.8,673.47 692.27,358.57 692.33,358.46 700.15,344.41 700.18,344.36 709.46,327.7 709.46,326.46 707.19,330.53 707.16,330.58 699.61,344.11 699.6,344.13 515.82,673.47 "/> </g> <g opacity="0.4"> <polygon fill="#94A3AF" points="524.69,673.47 709.46,341.86 709.46,340.6 523.71,673.47 "/> </g> <g opacity="0.2"> <polygon fill="#94A3AF" points="556.56,673.47 709.46,371.78 709.46,370.37 555.61,673.47 "/> </g> <g opacity="0.4"> <polygon fill="#94A3AF" points="541.46,673.47 709.46,371.48 709.46,367.58 538.51,673.47 "/> </g> <g opacity="0.4"> <polygon fill="#94A3AF" points="548.36,673.47 709.46,384.34 709.46,383.02 547.39,673.47 "/> </g> <g opacity="0.4"> <polygon fill="#94A3AF" points="556.26,673.47 709.46,398.5 709.46,397.17 555.28,673.47 "/> </g> <g opacity="0.2"> <polygon fill="#94A3AF" points="532.29,673.47 709.46,355.48 709.46,354.2 531.3,673.47 "/> </g> <g opacity="0.4"> <polygon fill="#94A3AF" points="564.15,673.47 709.46,412.66 709.46,411.31 563.17,673.47 "/> </g> <g opacity="0.4"> <polygon fill="#94A3AF" points="572.04,673.47 709.46,426.82 709.46,425.45 571.06,673.47 "/> </g> <g opacity="0.2"> <polygon fill="#94A3AF" points="602.93,673.47 709.46,463.25 709.46,461.72 601.98,673.47 "/> </g> <g opacity="0.4"> <polygon fill="#94A3AF" points="588.78,673.47 709.46,456.55 709.46,452.33 585.88,673.47 "/> </g> <g opacity="0.2"> <polygon fill="#94A3AF" points="511.89,673.47 709.46,318.34 709.46,314.65 510.32,670.95 510.32,670.96 510.33,673.47 "/> </g> <g opacity="0.4"> <polygon fill="#94A3AF" points="709.46,243.28 510.13,599.92 510.14,604.94 709.46,246.69 "/> </g> <g opacity="0.4"> <polygon fill="#94A3AF" points="595.7,673.47 709.46,469.3 709.46,467.88 594.74,673.47 "/> </g> <g opacity="0.4"> <polygon fill="#94A3AF" points="626.11,673.47 709.46,508.99 709.46,507.4 625.17,673.47 "/> </g> <g opacity="0.4"> <polygon fill="#94A3AF" points="611.49,673.47 709.46,497.62 709.46,496.16 610.52,673.47 "/> </g> <g opacity="0.4"> <polygon fill="#94A3AF" points="619.37,673.47 709.46,511.78 709.46,510.3 618.41,673.47 "/> </g> <g opacity="0.4"> <polygon fill="#94A3AF" points="627.27,673.47 709.46,525.94 709.46,524.45 626.31,673.47 "/> </g> <g opacity="0.2"> <polygon fill="#94A3AF" points="635.16,673.47 709.46,540.1 709.46,538.59 634.2,673.47 "/> </g> <g opacity="0.4"> <polygon fill="#94A3AF" points="643.05,673.47 709.46,554.26 709.46,552.73 642.09,673.47 "/> </g> <g opacity="0.4"> <polygon fill="#94A3AF" points="672.47,673.47 709.46,600.47 709.46,598.75 671.54,673.47 "/> </g> <g opacity="0.4"> <polygon fill="#94A3AF" points="658.82,673.47 709.46,582.58 709.46,581.02 657.87,673.47 "/> </g> <g opacity="0.2"> <polygon fill="#94A3AF" points="666.72,673.47 709.46,596.74 709.46,595.16 665.77,673.47 "/> </g> <g opacity="0.2"> <polygon fill="#94A3AF" points="674.6,673.47 709.46,610.9 709.46,609.3 673.66,673.47 "/> </g> <g opacity="0.4"> <polygon fill="#94A3AF" points="682.5,673.47 709.46,625.06 709.46,623.44 681.55,673.47 "/> </g> <g opacity="0.4"> <polygon fill="#94A3AF" points="698.27,673.47 709.46,653.39 709.46,651.73 697.33,673.47 "/> </g> <g opacity="0.2"> <polygon fill="#94A3AF" points="706.17,673.47 709.46,667.55 709.46,665.87 705.23,673.47 "/> </g> <polygon fill="#495866" points="112.04,605.07 105.1,618.54 105.5,616.78 "/> <polygon fill="#495866" points="215.99,208.61 208.25,222.51 206.82,222.41 203.78,222.2 200.66,221.98 199.23,221.88 197.25,221.74 195.64,228.3 194.47,233.1 191.93,243.5 189.48,253.47 188.28,258.38 186.7,261.22 187.78,256.52 189.94,247.06 192.19,237.2 192.19,237.19 193.24,232.61 193.24,232.6 195.49,222.75 197.94,212.04 197.94,212.02 198.44,209.82 198.44,209.81 198.83,208.12 199.38,208.14 200.1,208.16 203.58,208.26 206.79,208.35 208.23,208.39 211.42,208.48 214.55,208.57 "/> <polygon fill="#495866" points="230.45,209.03 225.1,218.62 230.05,209.02 "/> <polygon fill="#495866" points="231.16,209.05 225.69,218.87 230.76,209.04 "/> <polygon fill="#495866" points="394.24,213.73 389.69,221.91 382.61,234.61 389.16,221.6 393.14,213.7 393.56,213.72 393.8,213.72 "/> <polygon fill="#495866" points="332.12,211.95 326.66,221.74 331.61,211.93 "/> <polygon fill="#495866" points="363.18,212.84 350.92,234.85 357.67,221.46 362.04,212.81 362.49,212.82 "/> <g opacity="0.2"> <polygon fill="#94A3AF" points="56.49,0 0,101.24 0,125.8 70.1,0 "/> <polygon fill="#94A3AF" points="62.99,0 0,112.87 0,114.15 63.61,0 "/> </g> <g opacity="0.2"> <polygon fill="#94A3AF" points="95.95,0 0,171.95 0,196.6 109.55,0 "/> <polygon fill="#94A3AF" points="102.44,0 0,183.58 0,184.95 103.06,0 "/> </g> <g opacity="0.2"> <polygon fill="#94A3AF" points="138.23,0 0,278.77 0,305.97 151.47,0 "/> <polygon fill="#94A3AF" points="144.55,0 0,291.53 0,293.19 145.14,0 "/> </g> <g opacity="0.1"> <polygon fill="#94A3AF" points="180.19,0 0,322.41 0,350.4 194.95,0 "/> <polygon fill="#94A3AF" points="186.68,0 0,334.03 0,338.74 188.46,0 "/> </g> <g opacity="0.2"> <polygon fill="#94A3AF" points="277.47,0 0,497.22 0,522.29 291.02,0 "/> <polygon fill="#94A3AF" points="283.96,0 0,508.85 0,510.64 284.53,0 "/> </g> <g opacity="0.1"> <polygon fill="#94A3AF" points="37.21,673.47 44.59,659.12 82.72,585.03 131.55,490.17 137.33,466.56 137.33,466.55 141.79,457.89 142.81,453.4 143.23,451.57 144.09,447.8 140.23,454.71 144.74,436.29 138.19,448.97 130.53,463.82 73.94,573.41 73.91,573.46 47.7,624.23 47.69,624.25 22.28,673.47 "/> <polygon fill="#94A3AF" points="30.83,673.47 137.33,466.56 137.33,466.55 141.79,457.89 142.81,453.4 143.23,451.57 138.98,459.81 135.57,466.42 28.66,673.47 "/> <polygon fill="#94A3AF" points="370.01,0 258.74,215.5 267.74,215.77 272.71,215.9 278.8,204.09 383.84,0 "/> <polygon fill="#94A3AF" points="376.4,0 267.91,210.1 268.93,210.13 269.3,210.14 273.76,201.49 377.47,0 "/> </g> <g opacity="0.2"> <polygon fill="#94A3AF" points="517.12,0 472.13,87.06 472.09,87.15 464.73,101.39 464.7,101.45 403.59,219.71 418.19,220.08 418.31,219.84 418.31,219.83 426.83,203.27 463.9,131.2 463.95,131.1 471.12,117.17 471.14,117.14 531.39,0 "/> <polygon fill="#94A3AF" points="523.5,0 412.78,214.27 414.78,214.32 525.01,0 "/> </g> <g opacity="0.1"> <polygon fill="#94A3AF" points="663.69,0 513.75,268.29 509.25,276.35 509.25,276.37 509.28,287.91 509.29,291.75 509.32,303.35 623.87,97.47 629.94,86.55 678.1,0 "/> <polygon fill="#94A3AF" points="670.19,0 509.28,287.91 509.29,291.75 671.61,0 "/> </g> <g opacity="0.1"> <polygon fill="#94A3AF" points="709.46,115.86 608.86,295.85 608.83,295.9 607.97,297.45 601.37,309.26 540.67,417.86 509.78,473.11 509.78,473.66 509.81,484.68 509.81,484.69 509.83,489.28 509.83,491.24 509.86,500.29 509.86,500.88 516.6,488.78 526,471.86 618.83,305.01 709.46,142.12 "/> <polygon fill="#94A3AF" points="709.46,127.48 545.62,420.63 537.05,435.96 509.81,484.68 509.81,484.69 509.83,489.28 511.64,486.03 521.05,469.1 709.46,130.46 "/> </g> <g opacity="0.1"> <polygon fill="#94A3AF" points="709.46,258.27 662.82,341.85 655.02,355.82 510.17,615.38 510.2,626.95 510.2,626.96 510.21,628.66 510.24,639.3 510.24,640.24 514.78,632.1 525.17,613.45 586.13,504.04 595.32,487.56 684.76,327.04 709.46,282.71 "/> <polygon fill="#94A3AF" points="709.46,269.9 598.6,468.56 589.7,484.51 510.2,626.95 510.2,626.96 510.21,628.66 581.18,501.28 590.37,484.8 709.46,271.07 "/> </g> <g opacity="0.2"> <polygon fill="#94A3AF" points="547.94,673.47 709.46,383.14 709.46,355.96 532.02,673.47 "/> <polygon fill="#94A3AF" points="541.46,673.47 709.46,371.48 709.46,367.58 538.51,673.47 "/> </g> <g opacity="0.2"> <polygon fill="#94A3AF" points="673.2,673.47 709.46,608.39 709.46,583.52 659.27,673.47 "/> <polygon fill="#94A3AF" points="666.72,673.47 709.46,596.74 709.46,595.16 665.77,673.47 "/> </g> <g opacity="0.2"> <polygon fill="#94A3AF" points="593.92,0 506.96,161.49 506.94,161.54 496.41,181.08 496.37,181.15 484,204.12 476.04,218.91 484.34,219.17 492.34,204.24 601.81,0 "/> <polygon fill="#94A3AF" points="597.13,0 480.71,216.22 482.67,216.28 598.59,0 "/> </g> <g opacity="0.2"> <polygon fill="#94A3AF" points="709.46,22.81 617.34,187.65 610.78,199.38 509.53,380.54 509.55,386.31 509.55,386.32 509.56,390.51 509.57,396.3 523.7,370.93 532.15,355.74 559.92,305.83 567.75,291.77 709.46,37.05 "/> <polygon fill="#94A3AF" points="709.46,28.61 585.79,249.89 578.68,262.61 509.55,386.31 509.55,386.32 509.56,390.51 557.44,304.45 565.27,290.39 709.46,31.22 "/> </g> <g opacity="0.2"> <polygon fill="#94A3AF" points="709.46,0 703.33,0 666.07,66.67 509.44,346.92 509.44,348.2 509.45,352.71 509.45,352.72 509.47,356.92 509.47,359.56 509.48,360.92 509.48,362.74 562.96,266.61 570.79,252.55 709.46,3.31 "/> <polygon fill="#94A3AF" points="706.57,0 588.84,210.67 581.72,223.39 509.45,352.71 509.45,352.72 509.47,356.92 509.47,356.91 560.48,265.23 568.31,251.17 708.05,0 "/> </g> <g opacity="0.2"> <polygon fill="#94A3AF" points="709.46,192.3 524.88,522.54 515.52,539.28 509.99,549.17 509.99,550.17 510,551.9 510.01,554.97 510.01,554.98 510.02,559.83 510.04,565.63 709.46,207.2 "/> <polygon fill="#94A3AF" points="709.46,198.1 510.01,554.97 510.01,554.98 510.02,559.83 709.46,201.35 "/> </g> <g opacity="0.2"> <polygon fill="#94A3AF" points="592.03,673.47 709.46,462.39 709.46,446.52 582.63,673.47 "/> <polygon fill="#94A3AF" points="588.78,673.47 709.46,456.55 709.46,452.33 585.88,673.47 "/> </g> <g opacity="0.2"> <polygon fill="#94A3AF" points="630.51,673.47 709.46,531.77 709.46,518.63 623.06,673.47 "/> <polygon fill="#94A3AF" points="627.27,673.47 709.46,525.94 709.46,524.45 626.31,673.47 "/> </g> <g opacity="0.2"> <polygon fill="#94A3AF" points="319.89,0 203.58,208.26 195.49,222.75 59.41,466.44 47.15,488.38 0,572.82 0,588.22 189.94,247.06 191.93,243.5 194.47,233.1 195.64,228.3 197.25,221.74 199.23,221.88 200.66,221.98 203.78,222.2 211.42,208.48 327.5,0 "/> <polygon fill="#94A3AF" points="193.24,232.6 193.24,232.61 20.84,541.31 7.8,564.66 0,578.63 0,582.37 192.19,237.2 192.19,237.19 194.47,233.1 195.64,228.3 "/> <polygon fill="#94A3AF" points="323.15,0 206.79,208.35 199.23,221.88 200.66,221.98 208.23,208.39 324.26,0 "/> </g> <g opacity="0.2"> <polygon fill="#94A3AF" points="169.19,326.99 168.91,326.88 142.51,374.16 0,629.36 0,644.9 70.55,518.18 83.45,495 114.02,440.1 126.06,418.49 167.17,344.63 174.26,315.7 "/> <polygon fill="#94A3AF" points="144.99,375.54 133.84,395.51 0,635.17 0,639.06 111.54,438.72 123.58,417.11 170.24,333.29 171.39,328.26 "/> <polygon fill="#94A3AF" points="351.47,0 233.11,211.95 240.93,212.17 359.06,0 "/> <polygon fill="#94A3AF" points="354.72,0 237.86,209.24 239.29,209.28 355.82,0 "/> </g> <g opacity="0.2"> <polygon fill="#94A3AF" points="80,673.47 92.74,648.72 109.57,603.69 103.89,613.85 103.4,613.67 99.44,621.34 72.55,673.47 "/> <polygon fill="#94A3AF" points="76.81,673.47 99.39,629.62 105.1,618.54 112.04,605.07 105.5,616.78 105.92,614.97 98.58,629.19 85.41,654.71 75.74,673.47 "/> <polygon fill="#94A3AF" points="420.01,0 309.53,214.14 316.5,214.34 426.91,0 "/> <polygon fill="#94A3AF" points="423.2,0 314.11,211.43 314.8,211.45 423.73,0 "/> </g> <g opacity="0.2"> <polygon fill="#94A3AF" points="497.62,0 380.08,233.34 385.09,235.99 392.17,223.29 396.33,215 504.46,0 "/> <polygon fill="#94A3AF" points="500.79,0 393.14,213.7 389.16,221.6 382.61,234.61 389.69,221.91 393.8,213.72 396.03,209.29 501.29,0 "/> </g> <g opacity="0.2"> <polygon fill="#94A3AF" points="549.05,0 435.53,203.4 427.65,217.52 434.71,217.73 442.63,203.51 556.03,0 "/> <polygon fill="#94A3AF" points="552.29,0 432.4,214.83 433.07,214.85 552.79,0 "/> </g> <g opacity="0.2"> <polygon fill="#94A3AF" points="651.64,0 556.4,170.67 549.66,182.74 521.86,232.56 514.59,245.56 509.19,255.25 509.2,261.03 509.21,262.29 509.21,263.76 509.22,268.07 512.56,262.11 520.04,248.67 658.6,0 "/> <polygon fill="#94A3AF" points="654.88,0 524.33,233.94 517.07,246.94 509.2,261.03 509.21,262.29 510.08,260.73 517.56,247.29 655.36,0 "/> </g> <g opacity="0.2"> <polygon fill="#94A3AF" points="709.46,80.24 509.69,438.23 509.7,444 509.7,444.01 509.71,445.49 509.72,451.28 709.46,92.83 "/> <polygon fill="#94A3AF" points="709.46,86.04 509.7,444 509.7,444.01 509.71,445.49 709.46,86.99 "/> </g> <polygon fill="#94A3AF" points="173.03,321.11 172.84,321.49 173.56,318.52 173.67,318.31 "/> <polygon fill="#94A3AF" points="426.83,203.27 418.31,219.83 418.4,212.86 418.42,211.61 418.42,211.6 418.47,207.15 418.47,207.14 418.52,203.16 418.52,203.15 418.53,203.15 420.51,203.18 423.1,203.22 423.76,203.23 423.77,203.23 "/> <polygon fill="#94A3AF" points="431.59,203.34 425.3,214.63 424.63,214.61 430.92,203.33 "/> <polygon fill="#94A3AF" points="442.63,203.51 434.71,217.73 427.65,217.52 435.53,203.4 438.75,203.45 439.42,203.46 "/> <polygon fill="#94A3AF" points="450.35,203.62 444.16,215.17 442.17,215.11 448.37,203.59 "/> <polygon fill="#94A3AF" points="462.34,203.8 456.4,215.52 455.75,215.5 461.69,203.79 "/> <polygon fill="#94A3AF" points="465.87,203.85 459.57,215.61 457.59,215.55 463.9,203.82 "/> <polygon fill="#94A3AF" points="470.71,203.92 464.13,215.74 463.47,215.72 470.06,203.91 "/> <polygon fill="#94A3AF" points="492.34,204.24 484.34,219.17 476.04,218.91 484,204.12 484.71,204.13 485.34,204.14 487.2,204.17 489.14,204.2 489.15,204.2 "/> <polygon fill="#94A3AF" points="494.19,204.27 487.43,216.41 486.77,216.39 493.54,204.26 "/> <polygon fill="#94A3AF" points="504.67,204.43 498.08,216.72 496.12,216.66 502.72,204.4 "/> <polygon fill="#94A3AF" points="509.05,204.76 509.05,205.92 502.96,216.86 502.31,216.84 "/> <polygon fill="#94A3AF" points="426.83,203.27 418.31,219.83 418.4,212.86 418.42,211.61 418.42,211.6 418.47,207.15 418.47,207.14 418.52,203.16 418.52,203.15 418.53,203.15 420.51,203.18 423.1,203.22 423.76,203.23 423.77,203.23 "/> <polygon fill="#94A3AF" points="431.59,203.34 425.3,214.63 424.63,214.61 430.92,203.33 "/> <polygon fill="#94A3AF" points="442.63,203.51 434.71,217.73 427.65,217.52 435.53,203.4 438.75,203.45 439.42,203.46 "/> <polygon fill="#94A3AF" points="448.37,203.59 450.35,203.62 444.16,215.17 442.17,215.11 "/> <polygon fill="#94A3AF" points="462.34,203.8 456.4,215.52 455.75,215.5 461.69,203.79 "/> <polygon fill="#94A3AF" points="465.87,203.85 459.57,215.61 457.59,215.55 463.9,203.82 "/> <polygon fill="#94A3AF" points="470.06,203.91 470.71,203.92 464.13,215.74 463.47,215.72 "/> <polygon fill="#94A3AF" points="492.34,204.24 484.34,219.17 476.04,218.91 484,204.12 484.71,204.13 485.34,204.14 487.2,204.17 489.14,204.2 489.15,204.2 "/> <polygon fill="#94A3AF" points="494.19,204.27 487.43,216.41 486.77,216.39 493.54,204.26 "/> <polygon fill="#94A3AF" points="498.08,216.72 496.12,216.66 502.72,204.4 504.67,204.43 "/> <polygon fill="#94A3AF" points="502.31,216.84 509.05,204.76 509.05,205.92 502.96,216.86 "/> </g> <g id="Warstwa_6"> <polygon opacity="0.1" fill="#FFFFFF" points="0,323.47 0,0 184.14,0 "/> <polygon opacity="0.1" points="268.18,0 22.28,673.47 142.51,673.47 332.15,0 "/> <polygon opacity="0.1" fill="#1D1D1B" points="537.22,0 291.33,673.47 411.55,673.47 601.2,0 "/> <polygon opacity="0.1" points="606.78,0 360.88,673.47 531.11,673.47 670.75,0 "/> <polygon opacity="0.1" points="709.46,376.06 709.46,673.47 579.95,673.47 "/> <polygon opacity="0.1" points="34.51,499.08 210.03,0 242.41,0 126.97,499.96 "/> <polygon opacity="0.1" points="237.05,499.08 412.57,0 444.94,0 329.5,499.96 "/> <polygon opacity="0.1" fill="#FFFFFF" points="406.74,499.08 582.26,0 614.64,0 499.2,499.96 "/> </g> <g id="Warstwa_1"> <path d="M425.44,285.91c0,0,9.62,36.54,4.49,39.1s-12.18,0-12.18,0s-24.1-26.26-24.1-35.38"/> <linearGradient id="SVGID_1_" gradientUnits="userSpaceOnUse" x1="428.7456" y1="285.6523" x2="428.7456" y2="325.9349"> <stop offset="0" style="stop-color:#E66161"/> <stop offset="1" style="stop-color:#B2B2B2"/> </linearGradient> <path fill="url(#SVGID_1_)" d="M425.44,285.91c2.38,5.86,3.87,12.1,5.11,18.29c0.78,3.9,1.34,7.89,1.48,11.88 c0.06,1.84,0.04,3.72-0.29,5.54c-0.13,0.72-0.31,1.45-0.62,2.11c-0.04,0.09-1,1.54-1.19,1.29c0.14,0.15,0.71-1.05,0.73-1.13 c0.22-0.71,0.27-1.46,0.29-2.2c0.04-1.84-0.18-3.68-0.42-5.49c-0.51-3.92-1.23-7.81-1.94-11.69 C427.47,298.32,426.23,292.14,425.44,285.91z"/> <polygon points="318,307.33 329.35,350.82 370.07,324.82 365.67,294.35 "/> <path d="M404.73,305.13c0,0,0.9,16.15,0,18.39s15.7,50.24,17.49,64.14s21.53,57.86,26.46,58.76c0,0-13.01,6.73-14.8,6.28 s11.66,28.71,14.8,45.75s6.28,34.54,8.07,39.47s7.63,17.94,8.07,21.08s4.04,13.46,5.38,13.9c0,0,4.04,0,4.49,2.69 s-2.69,7.63-2.69,7.63s-12.54,2.15-15.13,1.7c0,0-1.8-11.82-3.49-12.72c0,0-1.69,13.06-1.58,14.53c0,0-4.73,0.45-6.64,0 c0,0-0.9-15.43-1.8-16.55s-4.71-8.45-3.65-10.58s3.99-8.9,3.42-10.36s-12.16-30.06-13.62-31.97s-9.46-13.17-10.13-15.43 s-8.78-28.82-9.46-31.64s-8.9-15.65-10.92-18.02c0,0-18.13,2.37-23.3,1.69s-20.04-2.48-26.35-2.82s-16.66,0.34-19.37,0.56 s4.05-70.54,4.05-70.54s17-45.5,17.5-53s4.5-25.64,3.5-26.82s3.5-47.68,3.5-50.68l73.5,9c0,0-12,17-13.5,21.5 S404.73,305.13,404.73,305.13z"/> <path d="M340.78,446.6c0,0-0.43,10.98,0,12.49s-4.95,13.14-4.74,17.87s0.91,23.26,4.76,37.25s4.71,24.55,4.28,27.13 s-1.29,7.54-1.08,9.26s0.42,2.58,1.18,3.88c0,0-2.25,3.66-2.25,7.32s1.28,4.74,2.25,8.18s2.27,14,1.84,15.29s5.17,1.94,6.25,1.51 s1.08-4.74,1.08-4.74s11.84,0.43,13.14-0.65s3.23-5.38,2.37-6.67s-2.15-5.17-3.45-7.97s-1.72-7.97-1.94-10.98 s-3.01-9.26-3.01-14.64s1.51-15.07,1.29-17.44s0.86-34.24,1.08-38.54s1.29-18.09,0.43-19.81s2.37-12.92,2.58-15.29"/> <path d="M345.19,554.49c0,0,2.77-8.62,6-6.25s10.12,10.98,10.77,11.84s3.46,3.61,3.71,4.51"/> <path d="M443.15,549.22c0,0,4.14-2.78,8.66,3.25s12.7,17.8,15.07,18.52s4.17,1.98,4.17,1.98"/> <path d="M274.16,292.51c0,0,8.32,17.82,6.73,22.97s-7.92,28.12-10.3,32.48s-22.97,88.71-22.97,88.71s19.41,3.96,25.35,4.36 c0,0,15.25,2.22,18.92,1.61c0,0,26.7,1.22,34.04-2.65c0,0,19.57,0.41,27.11-2.65c0,0-18.75-90.71-20.38-95.4 c-1.63-4.69-5.3-23.64-5.1-25.89c0.2-2.24,2.24-21.61,4.48-26.09c2.24-4.49,2.65-10.4,2.85-11.82"/> <path d="M292.1,440.2c0,0-3.06,17.33-3.67,21c-0.61,3.67-1.63,12.03-1.63,13.45c0,1.43-4.69,17.33-5.71,23.65 c-1.02,6.32,0.2,25.07,0,30.78c-0.2,5.71-1.63,15.49-1.83,17.73c-0.2,2.24-2.24,11.22-2.65,12.24c-0.41,1.02-2.66,4.81-3.47,6.73 c-1.17,2.78,0.82,9.17,1.22,10.6c0.41,1.43,3.67,10.8,3.67,10.8h5.91l2.24-8.36c0,0,7.54,2.04,10.4,3.26 c2.85,1.22,6.73,2.85,10.8,2.45c4.08-0.41,14.47-4.49,15.9-5.91c1.43-1.43,2.65-8.36,1.63-8.97c-1.02-0.61-2.85-0.81-5.3-0.61 c-2.45,0.2-6.52,0.41-7.95-0.61c-1.43-1.02-10.87-5.91-12.47-8.76c-1.6-2.85-3.84-6.52-3.03-9.17s8.56-27.52,9.38-32.21 c0.82-4.69,4.48-28.33,4.28-31.39c-0.2-3.06,1.63-15.29,2.85-17.94c1.22-2.65,12.61-33.84,12.61-33.84"/> <path d="M279.67,438.16c0,0,2.85,15.49,3.26,16.31s4.08,35.47,9.58,49.33c5.5,13.86,12.03,30.71,12.44,33.91c0,0,1.02,2.99,0,5.23 c-1.02,2.24-2.24,3.06-0.81,6.73c1.43,3.67,1.27,5.1,1.27,5.1l1.79,8.15h4.48l1.02-5.5c0,0,7.95,0,10.4-2.45 c2.45-2.45,4.01-10.4,2.21-12.84c-1.8-2.45-5.07-0.21-5.07-0.21s-4.48-6.11-5.3-10.6c-0.82-4.48-3.81-35.75-5.17-42.64 c-1.35-6.89-1.76-29.52-3.19-31.96c-1.43-2.45-0.82-20.18-0.82-20.18"/> <path d="M273.11,288.6c0,0-12.26,36.18-3.73,46.86c3.94,4.93,24.36-10.9,24.36-10.9L273.11,288.6z"/> <g> <g> <g> <path fill="#9D9D9C" d="M250.74,298.3c0.64,0.34,1.43,0.1,1.77-0.52l9.84-18.01c0.34-0.63,0.1-1.41-0.53-1.74 c-0.64-0.34-1.43-0.1-1.77,0.52l-9.84,18.01C249.87,297.19,250.1,297.97,250.74,298.3z"/> </g> <path fill="#432918" d="M261.82,278.03l-11.08,20.27c-0.64-0.34-0.88-1.12-0.53-1.74l9.84-18.01 C260.39,277.93,261.19,277.69,261.82,278.03z"/> </g> <g> <g> <path fill="#9D9D9C" d="M190.98,224.83c0.51,0.5,1.34,0.5,1.85,0l14.7-14.46c0.51-0.5,0.51-1.32,0-1.82 c-0.51-0.5-1.34-0.5-1.85,0l-14.7,14.46C190.47,223.52,190.47,224.33,190.98,224.83z"/> </g> <path fill="#432918" d="M207.53,208.55l-16.54,16.28c-0.51-0.5-0.51-1.32,0-1.82l14.7-14.46 C206.19,208.05,207.02,208.05,207.53,208.55z"/> </g> <g> <g> <path fill="#9D9D9C" d="M513.38,207.26c0.51-0.5,0.52-1.31,0.01-1.82l-14.64-14.51c-0.51-0.5-1.34-0.51-1.85-0.01 c-0.51,0.5-0.52,1.31-0.01,1.82l14.64,14.51C512.04,207.75,512.87,207.76,513.38,207.26z"/> </g> <path fill="#432918" d="M496.9,190.92l16.48,16.34c-0.51,0.5-1.34,0.5-1.85-0.01l-14.64-14.51 C496.38,192.23,496.39,191.42,496.9,190.92z"/> </g> <g> <g> <path fill="#9D9D9C" d="M379.8,327.18c0.72-0.06,1.26-0.67,1.2-1.38l-1.6-20.38c-0.06-0.71-0.69-1.24-1.41-1.18 c-0.72,0.05-1.26,0.67-1.2,1.38l1.6,20.38C378.45,326.7,379.07,327.23,379.8,327.18z"/> </g> <path fill="#432918" d="M377.99,304.23l1.8,22.95c-0.72,0.06-1.35-0.48-1.4-1.18l-1.6-20.38 C376.73,304.9,377.27,304.29,377.99,304.23z"/> </g> <g> <g> <path fill="#9D9D9C" d="M489.94,285.67c0.61-0.38,0.8-1.17,0.41-1.77l-11.06-17.31c-0.38-0.6-1.19-0.78-1.8-0.41 s-0.8,1.17-0.41,1.77l11.06,17.31C488.52,285.87,489.33,286.05,489.94,285.67z"/> </g> <path fill="#432918" d="M477.5,266.18l12.45,19.49c-0.61,0.38-1.42,0.2-1.8-0.41l-11.06-17.31 C476.7,267.35,476.88,266.56,477.5,266.18z"/> </g> <path fill="#FE1E3D" d="M227.07,147.44c1.98-2.71,13.43-9.71,20.55-12.04c2.54-0.84,5.66-2.11,9-3.5c0,0,0,0,0.01-0.01 c5.11-2.12,10.67-4.5,15.18-5.93l0.03-0.01c0.78-0.26,1.54-0.48,2.25-0.66c7.51-1.94,59.67-18.26,64.01-20.21 c1.14-0.5,1.95-0.8,2.58-0.95c1.78-0.41,2.09,0.39,4.15,0.95c2.22,0.62,54.41,11.13,74.44,15.15h0.01 c4.79,0.96,7.73,1.56,7.73,1.56c7.17-0.95,59.21,54.62,77.23,74.15c3.83,4.15,6.13,6.67,6.13,6.67 c-3.9,2.08-20.22,62.41-23.52,74.74c-0.38,1.41-0.59,2.2-0.59,2.2c-21.63,0.35-93.97,31.78-106.42,37.26 c-1.19,0.53-1.83,0.81-1.83,0.81c-13.84-10.19-117.29-25.53-123.03-26.38c-0.17-0.03-0.25-0.04-0.25-0.04 c-3.11-10.68-57.98-70.02-60.01-72.21c-0.04-0.04-0.05-0.06-0.05-0.06C198.62,215.82,225.1,150.16,227.07,147.44z"/> <path fill="#FF656A" d="M419.27,120.23c0,0,37.43,41.99,41.2,44.27c0.03,0.01,0.04,0.01,0.05,0.03 c13.38,7.32,30.53,18.3,43.72,31.41c-18.02-19.52-70.07-75.1-77.23-74.15c0,0-2.94-0.59-7.73-1.56H419.27z"/> <path fill="#FE8276" d="M446.27,213.96c0.84,0.89,1.52,1.63,1.99,2.2c3.05,3.6,28.59,44.94,38.6,61.2 c3.3-12.33,19.62-72.66,23.52-74.74c0,0-2.3-2.52-6.13-6.67c-13.2-13.11-30.34-24.09-43.72-31.41 C460.52,164.53,444.29,207.64,446.27,213.96z"/> <path fill="#FD7867" d="M374.44,239.73c0.3,5.85,3.86,55.68,5.4,77.08c12.45-5.48,84.79-36.91,106.42-37.26 c0,0,0.21-0.78,0.59-2.2c-10.01-16.26-35.55-57.6-38.6-61.2c-0.47-0.57-1.15-1.31-1.99-2.2 C446.27,213.96,376.73,234.87,374.44,239.73z"/> <path fill="#DE0644" d="M254.98,291.24c5.74,0.85,109.2,16.19,123.03,26.38c0,0,0.64-0.28,1.83-0.81 c-1.54-21.4-5.1-71.23-5.4-77.08c0,0-77.78-15.99-84.35-14.92C284.97,235.08,262.42,276.21,254.98,291.24z"/> <path fill="#8B0035" d="M194.73,219c2.03,2.19,56.89,61.53,60.01,72.21c0,0,0.08,0.01,0.25,0.04 c7.44-15.04,29.99-56.17,35.12-66.43c0,0-31.8-43.9-40.87-49.31C238.42,184.08,206.47,209.61,194.73,219z"/> <path fill="#7F0238" d="M194.67,218.93c0,0,0.01,0.03,0.05,0.06c11.74-9.39,43.7-34.92,54.5-43.5c-0.42-0.24-0.77-0.41-1.09-0.49 l17.07-44.49c-2.99,0.46-5.9,0.93-8.58,1.36c-0.01,0.01-0.01,0.01-0.01,0.01c-3.34,1.39-6.46,2.66-9,3.5 c-7.11,2.33-18.57,9.32-20.55,12.04C225.1,150.16,198.62,215.82,194.67,218.93z"/> <path fill="#F11151" d="M256.63,131.89c2.68-0.44,5.58-0.9,8.58-1.36h0.01l6.59-4.57C267.3,127.38,261.74,129.76,256.63,131.89z"/> <path fill="#F11151" d="M265.22,130.52c12.35-1.92,26-3.79,30.1-3.41c7.39,0.71,55.78,14.83,63.01,16.95 c0.59,0.17,0.9,0.26,0.9,0.26s0.33,0.04,0.96,0.09c0.39-0.67-14.5-30.35-19.51-40.28c-0.63,0.15-1.44,0.45-2.58,0.95 c-4.34,1.94-56.5,18.26-64.01,20.21c-0.71,0.18-1.46,0.4-2.25,0.66l-0.03,0.01L265.22,130.52z"/> <path fill="#FF8976" d="M358.34,144.73c0.01,0.26,0.05,0.58,0.09,0.96c0.51-0.41,1.07-0.81,1.69-1.26 c0.04-0.01,0.05-0.01,0.05-0.01s0,0,0.01,0v-0.01c-0.63-0.05-0.96-0.09-0.96-0.09s-0.31-0.09-0.9-0.26 C358.31,144.18,358.32,144.4,358.34,144.73z"/> <path fill="#960138" d="M248.14,175.01c0.31,0.08,0.67,0.24,1.09,0.49c1.84-1.45,3.06-2.42,3.48-2.74 c3.43-2.62,25.87-13.84,29.3-14.96c3.11-1.03,64.86-11.19,76.34-13.07c-0.03-0.33-0.04-0.55-0.01-0.67 c-7.23-2.12-55.62-16.24-63.01-16.95c-4.09-0.39-17.75,1.49-30.1,3.41h-0.01L248.14,175.01z"/> <path fill="#E6002E" d="M340.68,104.13c5.01,9.93,19.91,39.61,19.51,40.28c11.16-7.9,36.19-21.47,42.04-23.28 c3.36-1.04,10.44-1.12,17.04-0.9c-20.04-4.03-72.22-14.53-74.44-15.15C342.77,104.52,342.45,103.72,340.68,104.13z"/> <path fill="#FF464E" d="M360.19,144.41c8.51,0.86,71.32,7.31,81.6,11.14c3.6,1.34,10.42,4.45,18.68,8.95 c-3.77-2.28-41.2-44.27-41.2-44.27c-6.6-0.22-13.68-0.14-17.04,0.9C396.38,122.95,371.34,136.52,360.19,144.41z"/> <path fill="#F65458" d="M360.19,144.41v0.01c1.12,0.81,57.3,40.73,62.2,45.54c4.33,4.26,18,17.7,23.88,23.99 c-1.99-6.31,14.24-49.43,14.24-49.43c-0.01-0.01-0.03-0.01-0.05-0.03c-8.25-4.5-15.08-7.61-18.68-8.95 C431.51,151.72,368.7,145.28,360.19,144.41z"/> <path fill="#FF5654" d="M358.44,145.7c1.44,12.32,15.66,87.05,16.01,94.03c2.29-4.86,71.83-25.77,71.83-25.77 c-5.89-6.29-19.55-19.73-23.88-23.99c-4.91-4.81-61.08-44.73-62.2-45.54c-0.01,0-0.01,0-0.01,0s-0.01,0-0.05,0.01 C359.51,144.89,358.95,145.29,358.44,145.7z"/> <path fill="#F3002D" d="M290.1,224.81c6.57-1.07,84.35,14.92,84.35,14.92c-0.35-6.98-14.57-81.71-16.01-94.03 c-1.7,1.29-2.89,2.35-3.39,3.11c-3.43,5.25-43.37,41.9-44.89,45.65c-1.53,3.74-18.65,25.81-19.03,28.06 C291.09,222.74,290.73,223.54,290.1,224.81z"/> <path fill="#A70239" d="M249.23,175.5c9.08,5.41,40.87,49.31,40.87,49.31c0.63-1.27,0.99-2.07,1.03-2.29 c0.38-2.25,17.5-24.32,19.03-28.06c1.52-3.74,41.46-40.4,44.89-45.65c0.5-0.76,1.69-1.83,3.39-3.11 c-0.04-0.39-0.08-0.71-0.09-0.96c-11.48,1.88-73.23,12.04-76.34,13.07c-3.43,1.12-25.87,12.33-29.3,14.96 C252.29,173.08,251.07,174.05,249.23,175.5z"/> <path fill="#FF8976" d="M358.34,144.73c0.98-0.17,1.6-0.27,1.78-0.3"/> <g> <g> <path fill="#9D9D9C" d="M358.32,146.15c0.72,0,1.31-0.58,1.31-1.29v-20.44c0-0.71-0.59-1.29-1.31-1.29s-1.31,0.58-1.31,1.29 v20.44C357.01,145.58,357.59,146.15,358.32,146.15z"/> </g> <path fill="#432918" d="M358.32,123.14v23.02c-0.72,0-1.31-0.58-1.31-1.29v-20.44C357.01,123.71,357.59,123.14,358.32,123.14z"/> <path fill="#EDEDED" d="M355.59,144.87c0,1.01,0.83,1.83,1.86,1.83h1.73c1.03,0,1.86-0.82,1.86-1.83l0,0 c0-1.01-0.83-1.83-1.86-1.83h-1.73C356.42,143.03,355.59,143.85,355.59,144.87L355.59,144.87z"/> <path fill="#706F6F" d="M357.45,143.03h0.87v3.67h-0.87c-1.03,0-1.86-0.82-1.86-1.83S356.42,143.03,357.45,143.03z"/> </g> </g> <linearGradient id="SVGID_2_" gradientUnits="userSpaceOnUse" x1="426.4575" y1="447.4351" x2="426.4575" y2="310.7944"> <stop offset="0" style="stop-color:#B2B2B2"/> <stop offset="1" style="stop-color:#E66161"/> </linearGradient> <path fill="url(#SVGID_2_)" d="M404.99,310.86c0.2,2.06,0.38,4.12,0.47,6.2c0.09,2.06,0.34,4.79-0.26,6.59 c-0.07,0.8,0.25,1.69,0.44,2.45c0.39,1.55,0.85,3.08,1.31,4.6c0.83,2.74,1.7,5.48,2.56,8.21c1.87,5.94,3.75,11.88,5.59,17.83 c1.9,6.13,3.73,12.28,5.38,18.48c0.83,3.09,1.61,6.2,2.22,9.35c0.61,3.17,1.05,6.31,1.93,9.44c2.86,10.19,6.93,20.08,11.17,29.76 c1.97,4.5,4.04,8.98,6.32,13.34c0.89,1.7,1.81,3.39,2.83,5.02c0.57,0.91,1.16,1.82,1.82,2.66c0.15,0.19,1.81,1.88,1.91,1.64 c-0.13,0.3-2.04-1.54-2.22-1.74c-0.9-1.03-1.69-2.15-2.44-3.29c-1.33-2.02-2.56-4.1-3.74-6.21c-2.97-5.3-5.65-10.77-8.14-16.31 c-2.54-5.64-4.91-11.35-7-17.17c-1.07-2.97-2.06-5.96-2.87-9.01c-0.82-3.11-1.17-6.3-1.86-9.45c-2.79-12.61-6.8-24.98-10.43-37.37 c-1.65-5.64-3.33-11.29-4.77-16.99c-0.45-1.8-1.37-4.03-0.81-5.87c0.8-2.73,0.56-5.93,0.59-8.75 C404.99,313.13,405,312,404.99,310.86z"/> <path fill="#B2B2B2" d="M433.89,452.7c-0.38-0.01,1.14,4.15,1.46,4.94c0.35,0.88,0.7,1.77,1.06,2.65c0.96,2.32,1.91,4.65,2.87,6.97 c2.3,5.59,4.46,11.24,6.41,16.96c2.07,6.09,3.6,12.22,4.78,18.54c0.92,4.91,1.84,9.82,2.77,14.72c1.5,7.93,2.71,16.04,5.69,23.58 c1.23,3.11,2.45,6.22,3.67,9.33c0.55,1.41,1.09,2.83,1.58,4.26c0.73,2.12,1.13,4.27,1.67,6.43c0.53,2.14,1.18,4.26,1.91,6.35 c0.34,0.98,0.71,1.96,1.12,2.91c0.29,0.68,0.7,2.01,1.41,2.38c1.73-0.09,3.92,0.93,4.42,2.88c-0.37-1.08-1.01-1.74-2.1-2.12 c-0.66-0.23-1.35-0.34-2.04-0.37c-0.6-0.03-0.83-0.31-1.2-0.79c-1.66-2.35-2.65-5.38-3.61-8.08c-1.05-2.95-1.62-6.02-2.74-8.95 c-0.65-1.69-1.35-3.37-2.06-5.04c-2.03-4.77-4.4-9.56-5.8-14.56c-2.45-8.76-3.9-17.82-5.52-26.76c-1.19-6.58-2.25-13.17-4.08-19.61 c-2.17-7.63-4.83-15.1-7.45-22.58c-0.67-1.93-1.35-3.85-2.02-5.78c-0.35-1-0.7-2.01-1.04-3.02c-0.34-1.02-0.67-2.05-0.96-3.08 C434.05,454.71,433.52,452.57,433.89,452.7C433.69,452.69,433.79,452.67,433.89,452.7z"/> <path opacity="0.3" d="M335.53,672.08c-0.36,0.32-1.01,0.8-1.86,1.39h29.99c9.89-7.59,22.08-17.08,29.49-24.05 c14.52-13.67,29.34-27.69,34.43-31.65c5.09-3.96,19.6-14.39,22.15-16.91c2.54-2.52,13.02-10.79,14.66-11.15c0,0,4.04,0,6.28-2.16 s2.4-6.11,2.4-6.11s-11.1-1.72-14-1.36c0,0-9.7,9.48-11.99,10.2c0,0,3.63-2.39,4.72-3.56c0,0-4.43-0.36-6.64,0 c0,0-7.8,4.28-9.45,5.19c-1.65,0.9-10.35,6.77-10.72,8.49c-0.37,1.72-1.95,7.13-3.49,8.31c-1.54,1.17-32.23,24.11-34.97,25.64 c-2.74,1.54-18.26,10.56-20.44,12.37S338.09,669.82,335.53,672.08z"/> <path opacity="0.3" d="M323.3,607.59c-1.37,1.38-3.81,5.35-5.1,7.42c-1.29,2.07-9.2,10.53-22.4,21.76 c-13.2,11.22-26.26,26.07-29.64,29.87c-1.44,1.62-2.7,4.25-3.78,6.83h26.63c3.26-3.84,8.38-10.78,10.39-13.39 c2.66-3.45,22.86-29.01,24.66-30.91c1.8-1.9,6.76-9.67,10.35-13.99c3.59-4.32,10.56-9.32,12.79-11.74 c2.23-2.42,6.11-6.56,9.27-8.81s7.04-5.35,8.77-6.39c1.72-1.04,5.18-11.79,4.6-12.65c-0.57-0.86-14.42,4.29-14.42,4.29 s2.08-0.96,1.29-1.3s-6.82,0.17-7.25,1.21c-0.43,1.04-8.77,9.5-12.04,12.26c-3.28,2.76-5.27,3.63-7.72,6.56 c-2.44,2.94-2.63,5.87-2.63,5.87C325.45,605.52,324.67,606.21,323.3,607.59z"/> <path opacity="0.3" d="M237.34,673.47c0.05-0.17,0.09-0.3,0.12-0.4c0.55-2.12,6.88-11.93,9.12-14.38c0.25-0.28,0.64-0.78,1.12-1.43 c0,0,0,0,0,0c5.95-5.52,29.83-30.6,33.64-34.19c3.81-3.6,12.38-8.5,12.38-8.5s1.76,1.8,5.2-0.16c2.6-1.49,10.02-14.48,13.11-21.54 c1.95,0.07,3.63-0.09,4.88-0.52c1.43-0.49,7.58-13.8,7.11-14.95c-0.2-0.48-9.74-7.6-3.58-15.85c9.49-12.73,8.45-27.38-3.91-11.71 c-2.31,2.93-5.32,6.6-8.84,10.64c-2.45,2.81-20.05,17.81-20.05,17.81h-5.91c0,0-2.88,6.79-4.24,7.93c-1.36,1.14-14.25,7-14.94,9.23 c-0.47,1.54-0.75,4.58-1.02,5.39c-0.27,0.82-4.23,8.02-5.52,9.81c-1.29,1.8-6.4,9.64-10.01,14.22 c-3.61,4.58-17.35,19.61-20.55,24.68c-2.54,4.03-6.81,12.9-8.93,16.95c-2.53,2.43-4.95,4.8-7.16,6.98H237.34z M275.39,607.69 c0.95-2.13,5.65-5.07,9.15-7.36c1.43-0.93,4.4-2.14,7.55-3.3l-4.62,7.22c0,0-0.8,1.14-4.67,4.09c-3.88,2.94-3.2,3.6-3.68,5.39 c-0.48,1.8-3.49,4.2-3.49,4.2c-0.91,0.92-3.79,3.25-7.79,6.38C271.09,617.35,274.79,609.02,275.39,607.69z"/> <path fill="#B2B2B2" d="M369.85,574.73c-1.3-2.09-2.12-4.45-3.15-6.68c-1.21-2.62-1.92-5.21-2.34-8.07 c-0.33-2.31-0.42-4.58-1.07-6.83c-0.87-3-1.9-5.96-2.39-9.06c-0.99-6.2,0.56-12.66,0.87-18.87c0.11-2.17-0.03-4.36,0.02-6.53 c0.06-3.23,0.14-6.46,0.25-9.69c0.32-10.33,0.74-20.64,1.48-30.96c0.18-2.46,0.35-4.92,0.45-7.38c0.05-1.22,0.09-2.44,0.04-3.66 c-0.04-1-0.43-1.94-0.34-2.93c0.4-4.02,2.34-7.69,2.96-11.65c-0.14,2.25-0.83,4.51-1.31,6.7c-0.3,1.36-0.56,2.74-0.71,4.13 c-0.15,1.41,0.37,2.63,0.47,4.02c0.4,6.1-0.21,12.26-0.42,18.35c-0.23,6.35-0.36,12.7-0.53,19.05c-0.16,6.07-0.6,12.21-0.42,18.27 c0.12,4.29-0.66,8.56-1.07,12.82c-0.22,2.34-0.48,4.74-0.28,7.08c0.23,2.64,0.92,5.21,1.6,7.77c0.46,1.72,1,3.47,1.1,5.26 c0.13,2.3,0.27,4.62,0.63,6.9c0.36,2.27,1.19,4.26,1.98,6.39C368.35,571.03,368.93,572.96,369.85,574.73z"/> <path fill="#B2B2B2" d="M323.29,578.61c1.4-1.58,1.64-4.59,1.78-6.58c0.03-0.62,0.07-1.28-0.11-1.89 c-0.14-0.47-0.77-0.56-1.18-0.67c-1.48-0.34-3.02-0.2-4.52-0.06c-1.41,0.14-2.82,0.23-4.24,0.2c-1.66-0.04-2.92-0.39-4.36-1.21 c-2.63-1.51-5.29-2.96-7.81-4.64c-1.98-1.32-3.66-2.69-4.85-4.77c-1.37-2.4-3.12-5.18-2.77-8.07c0.22-1.31,0.73-2.59,1.11-3.86 c0.47-1.57,0.94-3.14,1.41-4.71c0.92-3.09,1.87-6.17,2.77-9.27c1.79-6.16,3.61-12.26,4.66-18.61c1.05-6.34,2.03-12.7,2.9-19.07 c0.37-2.75,0.86-5.56,0.89-8.35c0.03-2.55,0.29-5.06,0.67-7.58c0.46-3.07,1-6.17,1.85-9.16c0.68-2.4,1.84-4.68,2.76-6.99 c2.96-7.45,5.91-14.89,8.9-22.33c-1.54,4.72-3.14,9.43-4.74,14.13c-0.93,2.78-1.92,5.53-2.92,8.29c-0.87,2.41-1.99,4.8-2.63,7.28 c-1.36,5.32-2.11,11.06-2.15,16.55c0.05,3.03-0.54,6.16-0.93,9.16c-0.42,3.22-0.87,6.43-1.34,9.64c-0.47,3.2-0.93,6.41-1.44,9.6 c-0.51,3.21-1.31,6.33-2.2,9.45c-1.76,6.19-3.7,12.33-5.6,18.49c-0.45,1.44-0.89,2.88-1.34,4.33c-0.42,1.33-1.12,2.78-1.01,4.2 c0.19,2.51,1.71,4.86,2.89,7.02c1.22,2.24,4.1,3.79,6.18,5.12c1.23,0.79,2.48,1.55,3.74,2.3c1.1,0.66,2.22,1.59,3.48,1.89 c1.95,0.46,4.05,0.34,6.03,0.24c1.77-0.1,4.29-0.36,5.84,0.73c1.21,0.84,0.24,4.12-0.05,5.27 C324.66,575.98,324.25,577.64,323.29,578.61z"/> <path fill="#B2B2B2" d="M323.09,554.97c1.68-2.15,2.28-5.17,2.45-7.83c0.1-1.63,0.23-4.37-1.47-5.22c-1.11-0.55-2.5,0.04-3.43,0.69 c-0.1,0.07-0.54,0.46-0.62,0.36c-0.28-0.38-0.57-0.76-0.85-1.14c-1.71-2.35-3.27-4.91-4.36-7.61c-0.74-1.85-0.97-3.71-1.23-5.66 c-0.28-2.11-0.55-4.22-0.77-6.34c-0.32-3.1-0.65-6.21-0.95-9.31c-0.77-8.06-1.55-16.14-2.11-24.22 c2.98,13.79,4.35,27.87,6.05,41.86c0.48,3.95,2.91,7.68,5.06,10.91c-0.36-0.06-0.73-0.12-1.09-0.18c1.68-1.04,3.94-1.51,5.53-0.1 c0.74,0.65,1.07,1.68,1.2,2.62c0.28,2-0.11,4.09-0.67,6.01C325.29,551.68,324.5,553.57,323.09,554.97 C323.33,554.65,323.37,554.68,323.09,554.97z"/> <linearGradient id="SVGID_3_" gradientUnits="userSpaceOnUse" x1="340.9985" y1="368.8198" x2="340.9985" y2="337.3951"> <stop offset="0" style="stop-color:#B2B2B2"/> <stop offset="1" style="stop-color:#E66161"/> </linearGradient> <path fill="url(#SVGID_3_)" d="M348.98,338.29c-1.88,1.27-3.8,2.5-5.71,3.74c-1.54,1-3.08,2.02-4.6,3.04 c-1.19,0.81-2.9,1.76-3.64,3.04c0.03-0.1,0.04-0.13,0.03-0.09c-0.32,1.14,0.2,2.74,0.4,3.87c0.42,2.35,0.93,4.68,1.41,7.02 c0.43,2.12,0.85,4.24,1.23,6.36c0.03,0.18,0.48,3.27,0.54,3.27c-0.2,0-0.96-2.33-1.03-2.52c-0.72-1.88-1.38-3.79-1.97-5.71 c-0.65-2.07-1.24-4.16-1.72-6.27c-0.42-1.82-1.01-3.87-0.86-5.75c0.1-1.3,0.96-2.11,1.96-2.88c1.74-1.35,3.7-2.4,5.64-3.43 C343.31,340.56,346.12,339.29,348.98,338.29z"/> </g> </svg>